<mxfile host="app.diagrams.net" modified="2024-03-07T21:22:12.772Z" agent="Mozilla/5.0 (Windows NT 10.0; Win64; x64) AppleWebKit/537.36 (KHTML, like Gecko) Chrome/122.0.0.0 Safari/537.36" etag="4Vw347WkhN518wlQWCCb" version="23.1.2" type="device" pages="4">
  <diagram id="C5RBs43oDa-KdzZeNtuy" name="Page-1">
    <mxGraphModel dx="1195" dy="657" grid="1" gridSize="10" guides="1" tooltips="1" connect="1" arrows="1" fold="1" page="1" pageScale="1" pageWidth="827" pageHeight="1169" math="0" shadow="0">
      <root>
        <mxCell id="WIyWlLk6GJQsqaUBKTNV-0" />
        <mxCell id="WIyWlLk6GJQsqaUBKTNV-1" parent="WIyWlLk6GJQsqaUBKTNV-0" />
        <mxCell id="X-e0_OeTNIz3Z1LmJnsd-0" value="Polygon" style="swimlane;fontStyle=1;align=center;verticalAlign=top;childLayout=stackLayout;horizontal=1;startSize=26;horizontalStack=0;resizeParent=1;resizeParentMax=0;resizeLast=0;collapsible=1;marginBottom=0;whiteSpace=wrap;html=1;fontSize=16;" vertex="1" parent="WIyWlLk6GJQsqaUBKTNV-1">
          <mxGeometry x="400" y="180" width="160" height="78" as="geometry" />
        </mxCell>
        <mxCell id="X-e0_OeTNIz3Z1LmJnsd-5" value="Point" style="swimlane;fontStyle=0;childLayout=stackLayout;horizontal=1;startSize=26;fillColor=none;horizontalStack=0;resizeParent=1;resizeParentMax=0;resizeLast=0;collapsible=1;marginBottom=0;whiteSpace=wrap;html=1;fontSize=16;" vertex="1" parent="WIyWlLk6GJQsqaUBKTNV-1">
          <mxGeometry x="140" y="180" width="140" height="78" as="geometry" />
        </mxCell>
        <mxCell id="X-e0_OeTNIz3Z1LmJnsd-11" value="+ xCoord: int" style="text;strokeColor=none;fillColor=none;align=left;verticalAlign=top;spacingLeft=4;spacingRight=4;overflow=hidden;rotatable=0;points=[[0,0.5],[1,0.5]];portConstraint=eastwest;whiteSpace=wrap;html=1;fontSize=16;" vertex="1" parent="X-e0_OeTNIz3Z1LmJnsd-5">
          <mxGeometry y="26" width="140" height="26" as="geometry" />
        </mxCell>
        <mxCell id="X-e0_OeTNIz3Z1LmJnsd-12" value="+ yCoord: int" style="text;strokeColor=none;fillColor=none;align=left;verticalAlign=top;spacingLeft=4;spacingRight=4;overflow=hidden;rotatable=0;points=[[0,0.5],[1,0.5]];portConstraint=eastwest;whiteSpace=wrap;html=1;fontSize=16;" vertex="1" parent="X-e0_OeTNIz3Z1LmJnsd-5">
          <mxGeometry y="52" width="140" height="26" as="geometry" />
        </mxCell>
        <mxCell id="X-e0_OeTNIz3Z1LmJnsd-22" value="" style="endArrow=none;html=1;rounded=0;fontSize=12;curved=1;startSize=8;endSize=8;exitX=1;exitY=0.25;exitDx=0;exitDy=0;entryX=0;entryY=0.25;entryDx=0;entryDy=0;" edge="1" parent="WIyWlLk6GJQsqaUBKTNV-1" source="X-e0_OeTNIz3Z1LmJnsd-5" target="X-e0_OeTNIz3Z1LmJnsd-0">
          <mxGeometry width="50" height="50" relative="1" as="geometry">
            <mxPoint x="310" y="430" as="sourcePoint" />
            <mxPoint x="380" y="200" as="targetPoint" />
          </mxGeometry>
        </mxCell>
        <mxCell id="X-e0_OeTNIz3Z1LmJnsd-23" value="*" style="text;html=1;align=center;verticalAlign=middle;resizable=0;points=[];autosize=1;strokeColor=none;fillColor=none;fontSize=16;" vertex="1" parent="WIyWlLk6GJQsqaUBKTNV-1">
          <mxGeometry x="275" y="178" width="30" height="30" as="geometry" />
        </mxCell>
        <mxCell id="X-e0_OeTNIz3Z1LmJnsd-24" value="*" style="text;html=1;align=center;verticalAlign=middle;resizable=0;points=[];autosize=1;strokeColor=none;fillColor=none;fontSize=16;" vertex="1" parent="WIyWlLk6GJQsqaUBKTNV-1">
          <mxGeometry x="360" y="178" width="30" height="30" as="geometry" />
        </mxCell>
        <mxCell id="X-e0_OeTNIz3Z1LmJnsd-41" value="Polygon" style="swimlane;fontStyle=1;align=center;verticalAlign=top;childLayout=stackLayout;horizontal=1;startSize=26;horizontalStack=0;resizeParent=1;resizeParentMax=0;resizeLast=0;collapsible=1;marginBottom=0;whiteSpace=wrap;html=1;fontSize=16;" vertex="1" parent="WIyWlLk6GJQsqaUBKTNV-1">
          <mxGeometry x="400" y="342" width="160" height="78" as="geometry" />
        </mxCell>
        <mxCell id="X-e0_OeTNIz3Z1LmJnsd-42" value="Point" style="swimlane;fontStyle=0;childLayout=stackLayout;horizontal=1;startSize=26;fillColor=none;horizontalStack=0;resizeParent=1;resizeParentMax=0;resizeLast=0;collapsible=1;marginBottom=0;whiteSpace=wrap;html=1;fontSize=16;" vertex="1" parent="WIyWlLk6GJQsqaUBKTNV-1">
          <mxGeometry x="140" y="342" width="140" height="78" as="geometry" />
        </mxCell>
        <mxCell id="X-e0_OeTNIz3Z1LmJnsd-43" value="+ xCoord: int" style="text;strokeColor=none;fillColor=none;align=left;verticalAlign=top;spacingLeft=4;spacingRight=4;overflow=hidden;rotatable=0;points=[[0,0.5],[1,0.5]];portConstraint=eastwest;whiteSpace=wrap;html=1;fontSize=16;" vertex="1" parent="X-e0_OeTNIz3Z1LmJnsd-42">
          <mxGeometry y="26" width="140" height="26" as="geometry" />
        </mxCell>
        <mxCell id="X-e0_OeTNIz3Z1LmJnsd-44" value="+ yCoord: int" style="text;strokeColor=none;fillColor=none;align=left;verticalAlign=top;spacingLeft=4;spacingRight=4;overflow=hidden;rotatable=0;points=[[0,0.5],[1,0.5]];portConstraint=eastwest;whiteSpace=wrap;html=1;fontSize=16;" vertex="1" parent="X-e0_OeTNIz3Z1LmJnsd-42">
          <mxGeometry y="52" width="140" height="26" as="geometry" />
        </mxCell>
        <mxCell id="X-e0_OeTNIz3Z1LmJnsd-45" value="" style="endArrow=none;html=1;rounded=0;fontSize=12;curved=1;startSize=8;endSize=8;exitX=1;exitY=0.25;exitDx=0;exitDy=0;entryX=0;entryY=0.25;entryDx=0;entryDy=0;" edge="1" parent="WIyWlLk6GJQsqaUBKTNV-1" source="X-e0_OeTNIz3Z1LmJnsd-42" target="X-e0_OeTNIz3Z1LmJnsd-41">
          <mxGeometry width="50" height="50" relative="1" as="geometry">
            <mxPoint x="310" y="592" as="sourcePoint" />
            <mxPoint x="380" y="362" as="targetPoint" />
          </mxGeometry>
        </mxCell>
        <mxCell id="X-e0_OeTNIz3Z1LmJnsd-46" value="*" style="text;html=1;align=center;verticalAlign=middle;resizable=0;points=[];autosize=1;strokeColor=none;fillColor=none;fontSize=16;" vertex="1" parent="WIyWlLk6GJQsqaUBKTNV-1">
          <mxGeometry x="275" y="340" width="30" height="30" as="geometry" />
        </mxCell>
        <mxCell id="X-e0_OeTNIz3Z1LmJnsd-47" value="1" style="text;html=1;align=center;verticalAlign=middle;resizable=0;points=[];autosize=1;strokeColor=none;fillColor=none;fontSize=16;" vertex="1" parent="WIyWlLk6GJQsqaUBKTNV-1">
          <mxGeometry x="360" y="330" width="30" height="30" as="geometry" />
        </mxCell>
      </root>
    </mxGraphModel>
  </diagram>
  <diagram id="Vsld5YJzKObfLcHag9fu" name="Page-2">
    <mxGraphModel dx="2234" dy="1188" grid="0" gridSize="10" guides="1" tooltips="1" connect="1" arrows="1" fold="1" page="0" pageScale="1" pageWidth="850" pageHeight="1100" math="0" shadow="0">
      <root>
        <mxCell id="0" />
        <mxCell id="1" parent="0" />
        <mxCell id="jJPmIO-HIcSXzyW-VemB-2" value="&lt;b&gt;&lt;u&gt;P1:Point&lt;/u&gt;&lt;/b&gt;" style="swimlane;fontStyle=0;childLayout=stackLayout;horizontal=1;startSize=30;horizontalStack=0;resizeParent=1;resizeParentMax=0;resizeLast=0;collapsible=1;marginBottom=0;whiteSpace=wrap;html=1;fontSize=16;" vertex="1" parent="1">
          <mxGeometry x="-415" y="-53" width="140" height="90" as="geometry" />
        </mxCell>
        <mxCell id="jJPmIO-HIcSXzyW-VemB-3" value="xCoord: 0" style="text;strokeColor=none;fillColor=none;align=left;verticalAlign=middle;spacingLeft=4;spacingRight=4;overflow=hidden;points=[[0,0.5],[1,0.5]];portConstraint=eastwest;rotatable=0;whiteSpace=wrap;html=1;fontSize=16;" vertex="1" parent="jJPmIO-HIcSXzyW-VemB-2">
          <mxGeometry y="30" width="140" height="30" as="geometry" />
        </mxCell>
        <mxCell id="jJPmIO-HIcSXzyW-VemB-4" value="yCoord: 0" style="text;strokeColor=none;fillColor=none;align=left;verticalAlign=middle;spacingLeft=4;spacingRight=4;overflow=hidden;points=[[0,0.5],[1,0.5]];portConstraint=eastwest;rotatable=0;whiteSpace=wrap;html=1;fontSize=16;" vertex="1" parent="jJPmIO-HIcSXzyW-VemB-2">
          <mxGeometry y="60" width="140" height="30" as="geometry" />
        </mxCell>
        <mxCell id="jJPmIO-HIcSXzyW-VemB-6" value="&lt;b&gt;&lt;u&gt;Triangle 1:Polygon&lt;/u&gt;&lt;/b&gt;" style="html=1;whiteSpace=wrap;fontSize=16;" vertex="1" parent="1">
          <mxGeometry x="-215" y="71" width="146" height="50" as="geometry" />
        </mxCell>
        <mxCell id="jJPmIO-HIcSXzyW-VemB-7" value="&lt;b&gt;&lt;u&gt;P2:Point&lt;/u&gt;&lt;/b&gt;" style="swimlane;fontStyle=0;childLayout=stackLayout;horizontal=1;startSize=30;horizontalStack=0;resizeParent=1;resizeParentMax=0;resizeLast=0;collapsible=1;marginBottom=0;whiteSpace=wrap;html=1;fontSize=16;" vertex="1" parent="1">
          <mxGeometry x="-415" y="71" width="140" height="90" as="geometry" />
        </mxCell>
        <mxCell id="jJPmIO-HIcSXzyW-VemB-8" value="xCoord: 0" style="text;strokeColor=none;fillColor=none;align=left;verticalAlign=middle;spacingLeft=4;spacingRight=4;overflow=hidden;points=[[0,0.5],[1,0.5]];portConstraint=eastwest;rotatable=0;whiteSpace=wrap;html=1;fontSize=16;" vertex="1" parent="jJPmIO-HIcSXzyW-VemB-7">
          <mxGeometry y="30" width="140" height="30" as="geometry" />
        </mxCell>
        <mxCell id="jJPmIO-HIcSXzyW-VemB-9" value="yCoord: 3" style="text;strokeColor=none;fillColor=none;align=left;verticalAlign=middle;spacingLeft=4;spacingRight=4;overflow=hidden;points=[[0,0.5],[1,0.5]];portConstraint=eastwest;rotatable=0;whiteSpace=wrap;html=1;fontSize=16;" vertex="1" parent="jJPmIO-HIcSXzyW-VemB-7">
          <mxGeometry y="60" width="140" height="30" as="geometry" />
        </mxCell>
        <mxCell id="jJPmIO-HIcSXzyW-VemB-10" value="&lt;b&gt;&lt;u&gt;P3:Point&lt;/u&gt;&lt;/b&gt;" style="swimlane;fontStyle=0;childLayout=stackLayout;horizontal=1;startSize=30;horizontalStack=0;resizeParent=1;resizeParentMax=0;resizeLast=0;collapsible=1;marginBottom=0;whiteSpace=wrap;html=1;fontSize=16;" vertex="1" parent="1">
          <mxGeometry x="-409" y="195" width="140" height="90" as="geometry" />
        </mxCell>
        <mxCell id="jJPmIO-HIcSXzyW-VemB-11" value="xCoord: 3" style="text;strokeColor=none;fillColor=none;align=left;verticalAlign=middle;spacingLeft=4;spacingRight=4;overflow=hidden;points=[[0,0.5],[1,0.5]];portConstraint=eastwest;rotatable=0;whiteSpace=wrap;html=1;fontSize=16;" vertex="1" parent="jJPmIO-HIcSXzyW-VemB-10">
          <mxGeometry y="30" width="140" height="30" as="geometry" />
        </mxCell>
        <mxCell id="jJPmIO-HIcSXzyW-VemB-12" value="yCoord: 0" style="text;strokeColor=none;fillColor=none;align=left;verticalAlign=middle;spacingLeft=4;spacingRight=4;overflow=hidden;points=[[0,0.5],[1,0.5]];portConstraint=eastwest;rotatable=0;whiteSpace=wrap;html=1;fontSize=16;" vertex="1" parent="jJPmIO-HIcSXzyW-VemB-10">
          <mxGeometry y="60" width="140" height="30" as="geometry" />
        </mxCell>
        <mxCell id="jJPmIO-HIcSXzyW-VemB-13" value="" style="endArrow=none;html=1;rounded=0;fontSize=12;curved=1;startSize=8;endSize=8;entryX=1.007;entryY=0.133;entryDx=0;entryDy=0;entryPerimeter=0;exitX=0.5;exitY=0;exitDx=0;exitDy=0;" edge="1" parent="1" source="jJPmIO-HIcSXzyW-VemB-6" target="jJPmIO-HIcSXzyW-VemB-3">
          <mxGeometry width="50" height="50" relative="1" as="geometry">
            <mxPoint x="-243" y="225" as="sourcePoint" />
            <mxPoint x="-193" y="175" as="targetPoint" />
          </mxGeometry>
        </mxCell>
        <mxCell id="jJPmIO-HIcSXzyW-VemB-14" value="" style="endArrow=none;html=1;rounded=0;fontSize=12;curved=1;startSize=8;endSize=8;entryX=0.986;entryY=-0.067;entryDx=0;entryDy=0;exitX=0;exitY=0.5;exitDx=0;exitDy=0;entryPerimeter=0;" edge="1" parent="1" source="jJPmIO-HIcSXzyW-VemB-6" target="jJPmIO-HIcSXzyW-VemB-8">
          <mxGeometry width="50" height="50" relative="1" as="geometry">
            <mxPoint x="-188" y="233" as="sourcePoint" />
            <mxPoint x="-138" y="183" as="targetPoint" />
          </mxGeometry>
        </mxCell>
        <mxCell id="jJPmIO-HIcSXzyW-VemB-15" value="" style="endArrow=none;html=1;rounded=0;fontSize=12;curved=1;startSize=8;endSize=8;entryX=0.5;entryY=1;entryDx=0;entryDy=0;exitX=1.014;exitY=0.067;exitDx=0;exitDy=0;exitPerimeter=0;" edge="1" parent="1" source="jJPmIO-HIcSXzyW-VemB-11" target="jJPmIO-HIcSXzyW-VemB-6">
          <mxGeometry width="50" height="50" relative="1" as="geometry">
            <mxPoint x="-244" y="220" as="sourcePoint" />
            <mxPoint x="-194" y="170" as="targetPoint" />
          </mxGeometry>
        </mxCell>
        <mxCell id="jJPmIO-HIcSXzyW-VemB-30" value="&lt;b&gt;&lt;u&gt;P1:Point&lt;/u&gt;&lt;/b&gt;" style="swimlane;fontStyle=0;childLayout=stackLayout;horizontal=1;startSize=30;horizontalStack=0;resizeParent=1;resizeParentMax=0;resizeLast=0;collapsible=1;marginBottom=0;whiteSpace=wrap;html=1;fontSize=16;" vertex="1" parent="1">
          <mxGeometry x="158" y="-53" width="140" height="90" as="geometry" />
        </mxCell>
        <mxCell id="jJPmIO-HIcSXzyW-VemB-31" value="xCoord: 0" style="text;strokeColor=none;fillColor=none;align=left;verticalAlign=middle;spacingLeft=4;spacingRight=4;overflow=hidden;points=[[0,0.5],[1,0.5]];portConstraint=eastwest;rotatable=0;whiteSpace=wrap;html=1;fontSize=16;" vertex="1" parent="jJPmIO-HIcSXzyW-VemB-30">
          <mxGeometry y="30" width="140" height="30" as="geometry" />
        </mxCell>
        <mxCell id="jJPmIO-HIcSXzyW-VemB-32" value="yCoord: 0" style="text;strokeColor=none;fillColor=none;align=left;verticalAlign=middle;spacingLeft=4;spacingRight=4;overflow=hidden;points=[[0,0.5],[1,0.5]];portConstraint=eastwest;rotatable=0;whiteSpace=wrap;html=1;fontSize=16;" vertex="1" parent="jJPmIO-HIcSXzyW-VemB-30">
          <mxGeometry y="60" width="140" height="30" as="geometry" />
        </mxCell>
        <mxCell id="jJPmIO-HIcSXzyW-VemB-33" value="&lt;b&gt;&lt;u&gt;Triangle 2:Polygon&lt;/u&gt;&lt;/b&gt;" style="html=1;whiteSpace=wrap;fontSize=16;" vertex="1" parent="1">
          <mxGeometry x="-45" y="69" width="146" height="50" as="geometry" />
        </mxCell>
        <mxCell id="jJPmIO-HIcSXzyW-VemB-34" value="&lt;b&gt;&lt;u&gt;P2:Point&lt;/u&gt;&lt;/b&gt;" style="swimlane;fontStyle=0;childLayout=stackLayout;horizontal=1;startSize=30;horizontalStack=0;resizeParent=1;resizeParentMax=0;resizeLast=0;collapsible=1;marginBottom=0;whiteSpace=wrap;html=1;fontSize=16;" vertex="1" parent="1">
          <mxGeometry x="156" y="71" width="140" height="90" as="geometry" />
        </mxCell>
        <mxCell id="jJPmIO-HIcSXzyW-VemB-35" value="xCoord: 0" style="text;strokeColor=none;fillColor=none;align=left;verticalAlign=middle;spacingLeft=4;spacingRight=4;overflow=hidden;points=[[0,0.5],[1,0.5]];portConstraint=eastwest;rotatable=0;whiteSpace=wrap;html=1;fontSize=16;" vertex="1" parent="jJPmIO-HIcSXzyW-VemB-34">
          <mxGeometry y="30" width="140" height="30" as="geometry" />
        </mxCell>
        <mxCell id="jJPmIO-HIcSXzyW-VemB-36" value="yCoord: 3" style="text;strokeColor=none;fillColor=none;align=left;verticalAlign=middle;spacingLeft=4;spacingRight=4;overflow=hidden;points=[[0,0.5],[1,0.5]];portConstraint=eastwest;rotatable=0;whiteSpace=wrap;html=1;fontSize=16;" vertex="1" parent="jJPmIO-HIcSXzyW-VemB-34">
          <mxGeometry y="60" width="140" height="30" as="geometry" />
        </mxCell>
        <mxCell id="jJPmIO-HIcSXzyW-VemB-37" value="&lt;b&gt;&lt;u&gt;P3:Point&lt;/u&gt;&lt;/b&gt;" style="swimlane;fontStyle=0;childLayout=stackLayout;horizontal=1;startSize=30;horizontalStack=0;resizeParent=1;resizeParentMax=0;resizeLast=0;collapsible=1;marginBottom=0;whiteSpace=wrap;html=1;fontSize=16;" vertex="1" parent="1">
          <mxGeometry x="156" y="195" width="140" height="90" as="geometry" />
        </mxCell>
        <mxCell id="jJPmIO-HIcSXzyW-VemB-38" value="xCoord: -3" style="text;strokeColor=none;fillColor=none;align=left;verticalAlign=middle;spacingLeft=4;spacingRight=4;overflow=hidden;points=[[0,0.5],[1,0.5]];portConstraint=eastwest;rotatable=0;whiteSpace=wrap;html=1;fontSize=16;" vertex="1" parent="jJPmIO-HIcSXzyW-VemB-37">
          <mxGeometry y="30" width="140" height="30" as="geometry" />
        </mxCell>
        <mxCell id="jJPmIO-HIcSXzyW-VemB-39" value="yCoord: 0" style="text;strokeColor=none;fillColor=none;align=left;verticalAlign=middle;spacingLeft=4;spacingRight=4;overflow=hidden;points=[[0,0.5],[1,0.5]];portConstraint=eastwest;rotatable=0;whiteSpace=wrap;html=1;fontSize=16;" vertex="1" parent="jJPmIO-HIcSXzyW-VemB-37">
          <mxGeometry y="60" width="140" height="30" as="geometry" />
        </mxCell>
        <mxCell id="jJPmIO-HIcSXzyW-VemB-40" value="" style="endArrow=none;html=1;rounded=0;fontSize=12;curved=1;startSize=8;endSize=8;entryX=0;entryY=0.133;entryDx=0;entryDy=0;entryPerimeter=0;exitX=0.5;exitY=0;exitDx=0;exitDy=0;" edge="1" parent="1" source="jJPmIO-HIcSXzyW-VemB-33" target="jJPmIO-HIcSXzyW-VemB-31">
          <mxGeometry width="50" height="50" relative="1" as="geometry">
            <mxPoint x="285" y="211" as="sourcePoint" />
            <mxPoint x="335" y="161" as="targetPoint" />
          </mxGeometry>
        </mxCell>
        <mxCell id="jJPmIO-HIcSXzyW-VemB-41" value="" style="endArrow=none;html=1;rounded=0;fontSize=12;curved=1;startSize=8;endSize=8;entryX=-0.007;entryY=0.033;entryDx=0;entryDy=0;entryPerimeter=0;" edge="1" parent="1" target="jJPmIO-HIcSXzyW-VemB-35">
          <mxGeometry width="50" height="50" relative="1" as="geometry">
            <mxPoint x="103" y="92" as="sourcePoint" />
            <mxPoint x="390" y="169" as="targetPoint" />
          </mxGeometry>
        </mxCell>
        <mxCell id="jJPmIO-HIcSXzyW-VemB-42" value="" style="endArrow=none;html=1;rounded=0;fontSize=12;curved=1;startSize=8;endSize=8;entryX=0.5;entryY=1;entryDx=0;entryDy=0;exitX=-0.007;exitY=-0.167;exitDx=0;exitDy=0;exitPerimeter=0;" edge="1" parent="1" source="jJPmIO-HIcSXzyW-VemB-38" target="jJPmIO-HIcSXzyW-VemB-33">
          <mxGeometry width="50" height="50" relative="1" as="geometry">
            <mxPoint x="412" y="212" as="sourcePoint" />
            <mxPoint x="334" y="156" as="targetPoint" />
          </mxGeometry>
        </mxCell>
      </root>
    </mxGraphModel>
  </diagram>
  <diagram id="3SHjdVvKnovlIOELD3i5" name="Page-3">
    <mxGraphModel dx="1112" dy="1186" grid="0" gridSize="10" guides="1" tooltips="1" connect="1" arrows="1" fold="1" page="0" pageScale="1" pageWidth="850" pageHeight="1100" math="0" shadow="0">
      <root>
        <mxCell id="0" />
        <mxCell id="1" parent="0" />
        <mxCell id="c2yMyLL3b_PSxlEiWlKW-4" value="&lt;b&gt;&lt;u&gt;Triangle 1:Polygon&lt;/u&gt;&lt;/b&gt;" style="html=1;whiteSpace=wrap;fontSize=16;" vertex="1" parent="1">
          <mxGeometry x="-297" y="86" width="146" height="50" as="geometry" />
        </mxCell>
        <mxCell id="c2yMyLL3b_PSxlEiWlKW-8" value="&lt;b&gt;&lt;u&gt;P4:Point&lt;/u&gt;&lt;/b&gt;" style="swimlane;fontStyle=0;childLayout=stackLayout;horizontal=1;startSize=30;horizontalStack=0;resizeParent=1;resizeParentMax=0;resizeLast=0;collapsible=1;marginBottom=0;whiteSpace=wrap;html=1;fontSize=16;" vertex="1" parent="1">
          <mxGeometry x="-60" y="298" width="140" height="90" as="geometry" />
        </mxCell>
        <mxCell id="c2yMyLL3b_PSxlEiWlKW-9" value="xCoord: 3" style="text;strokeColor=none;fillColor=none;align=left;verticalAlign=middle;spacingLeft=4;spacingRight=4;overflow=hidden;points=[[0,0.5],[1,0.5]];portConstraint=eastwest;rotatable=0;whiteSpace=wrap;html=1;fontSize=16;" vertex="1" parent="c2yMyLL3b_PSxlEiWlKW-8">
          <mxGeometry y="30" width="140" height="30" as="geometry" />
        </mxCell>
        <mxCell id="c2yMyLL3b_PSxlEiWlKW-10" value="yCoord: 0" style="text;strokeColor=none;fillColor=none;align=left;verticalAlign=middle;spacingLeft=4;spacingRight=4;overflow=hidden;points=[[0,0.5],[1,0.5]];portConstraint=eastwest;rotatable=0;whiteSpace=wrap;html=1;fontSize=16;" vertex="1" parent="c2yMyLL3b_PSxlEiWlKW-8">
          <mxGeometry y="60" width="140" height="30" as="geometry" />
        </mxCell>
        <mxCell id="c2yMyLL3b_PSxlEiWlKW-13" value="" style="endArrow=none;html=1;rounded=0;fontSize=12;curved=1;startSize=8;endSize=8;entryX=0.5;entryY=1;entryDx=0;entryDy=0;exitX=0;exitY=0.033;exitDx=0;exitDy=0;exitPerimeter=0;" edge="1" parent="1" source="c2yMyLL3b_PSxlEiWlKW-9" target="c2yMyLL3b_PSxlEiWlKW-4">
          <mxGeometry width="50" height="50" relative="1" as="geometry">
            <mxPoint x="-244" y="220" as="sourcePoint" />
            <mxPoint x="-194" y="170" as="targetPoint" />
          </mxGeometry>
        </mxCell>
        <mxCell id="c2yMyLL3b_PSxlEiWlKW-14" value="&lt;b&gt;&lt;u&gt;P1:Point&lt;/u&gt;&lt;/b&gt;" style="swimlane;fontStyle=0;childLayout=stackLayout;horizontal=1;startSize=30;horizontalStack=0;resizeParent=1;resizeParentMax=0;resizeLast=0;collapsible=1;marginBottom=0;whiteSpace=wrap;html=1;fontSize=16;" vertex="1" parent="1">
          <mxGeometry x="-60" y="-32" width="140" height="90" as="geometry" />
        </mxCell>
        <mxCell id="c2yMyLL3b_PSxlEiWlKW-15" value="xCoord: 0" style="text;strokeColor=none;fillColor=none;align=left;verticalAlign=middle;spacingLeft=4;spacingRight=4;overflow=hidden;points=[[0,0.5],[1,0.5]];portConstraint=eastwest;rotatable=0;whiteSpace=wrap;html=1;fontSize=16;" vertex="1" parent="c2yMyLL3b_PSxlEiWlKW-14">
          <mxGeometry y="30" width="140" height="30" as="geometry" />
        </mxCell>
        <mxCell id="c2yMyLL3b_PSxlEiWlKW-16" value="yCoord: 0" style="text;strokeColor=none;fillColor=none;align=left;verticalAlign=middle;spacingLeft=4;spacingRight=4;overflow=hidden;points=[[0,0.5],[1,0.5]];portConstraint=eastwest;rotatable=0;whiteSpace=wrap;html=1;fontSize=16;" vertex="1" parent="c2yMyLL3b_PSxlEiWlKW-14">
          <mxGeometry y="60" width="140" height="30" as="geometry" />
        </mxCell>
        <mxCell id="c2yMyLL3b_PSxlEiWlKW-17" value="&lt;b&gt;&lt;u&gt;Triangle 2:Polygon&lt;/u&gt;&lt;/b&gt;" style="html=1;whiteSpace=wrap;fontSize=16;" vertex="1" parent="1">
          <mxGeometry x="191" y="86" width="146" height="50" as="geometry" />
        </mxCell>
        <mxCell id="c2yMyLL3b_PSxlEiWlKW-18" value="&lt;b&gt;&lt;u&gt;P2:Point&lt;/u&gt;&lt;/b&gt;" style="swimlane;fontStyle=0;childLayout=stackLayout;horizontal=1;startSize=30;horizontalStack=0;resizeParent=1;resizeParentMax=0;resizeLast=0;collapsible=1;marginBottom=0;whiteSpace=wrap;html=1;fontSize=16;" vertex="1" parent="1">
          <mxGeometry x="-60" y="81" width="140" height="90" as="geometry" />
        </mxCell>
        <mxCell id="c2yMyLL3b_PSxlEiWlKW-19" value="xCoord: 0" style="text;strokeColor=none;fillColor=none;align=left;verticalAlign=middle;spacingLeft=4;spacingRight=4;overflow=hidden;points=[[0,0.5],[1,0.5]];portConstraint=eastwest;rotatable=0;whiteSpace=wrap;html=1;fontSize=16;" vertex="1" parent="c2yMyLL3b_PSxlEiWlKW-18">
          <mxGeometry y="30" width="140" height="30" as="geometry" />
        </mxCell>
        <mxCell id="c2yMyLL3b_PSxlEiWlKW-20" value="yCoord: 3" style="text;strokeColor=none;fillColor=none;align=left;verticalAlign=middle;spacingLeft=4;spacingRight=4;overflow=hidden;points=[[0,0.5],[1,0.5]];portConstraint=eastwest;rotatable=0;whiteSpace=wrap;html=1;fontSize=16;" vertex="1" parent="c2yMyLL3b_PSxlEiWlKW-18">
          <mxGeometry y="60" width="140" height="30" as="geometry" />
        </mxCell>
        <mxCell id="c2yMyLL3b_PSxlEiWlKW-21" value="&lt;b&gt;&lt;u&gt;P3:Point&lt;/u&gt;&lt;/b&gt;" style="swimlane;fontStyle=0;childLayout=stackLayout;horizontal=1;startSize=30;horizontalStack=0;resizeParent=1;resizeParentMax=0;resizeLast=0;collapsible=1;marginBottom=0;whiteSpace=wrap;html=1;fontSize=16;" vertex="1" parent="1">
          <mxGeometry x="-62" y="188" width="140" height="90" as="geometry" />
        </mxCell>
        <mxCell id="c2yMyLL3b_PSxlEiWlKW-22" value="xCoord: -3" style="text;strokeColor=none;fillColor=none;align=left;verticalAlign=middle;spacingLeft=4;spacingRight=4;overflow=hidden;points=[[0,0.5],[1,0.5]];portConstraint=eastwest;rotatable=0;whiteSpace=wrap;html=1;fontSize=16;" vertex="1" parent="c2yMyLL3b_PSxlEiWlKW-21">
          <mxGeometry y="30" width="140" height="30" as="geometry" />
        </mxCell>
        <mxCell id="c2yMyLL3b_PSxlEiWlKW-23" value="yCoord: 0" style="text;strokeColor=none;fillColor=none;align=left;verticalAlign=middle;spacingLeft=4;spacingRight=4;overflow=hidden;points=[[0,0.5],[1,0.5]];portConstraint=eastwest;rotatable=0;whiteSpace=wrap;html=1;fontSize=16;" vertex="1" parent="c2yMyLL3b_PSxlEiWlKW-21">
          <mxGeometry y="60" width="140" height="30" as="geometry" />
        </mxCell>
        <mxCell id="c2yMyLL3b_PSxlEiWlKW-24" value="" style="endArrow=none;html=1;rounded=0;fontSize=12;curved=1;startSize=8;endSize=8;exitX=0.5;exitY=0;exitDx=0;exitDy=0;" edge="1" parent="1" source="c2yMyLL3b_PSxlEiWlKW-17">
          <mxGeometry width="50" height="50" relative="1" as="geometry">
            <mxPoint x="285" y="211" as="sourcePoint" />
            <mxPoint x="79" y="-7" as="targetPoint" />
          </mxGeometry>
        </mxCell>
        <mxCell id="c2yMyLL3b_PSxlEiWlKW-25" value="" style="endArrow=none;html=1;rounded=0;fontSize=12;curved=1;startSize=8;endSize=8;exitX=0;exitY=0.5;exitDx=0;exitDy=0;" edge="1" parent="1" source="c2yMyLL3b_PSxlEiWlKW-17">
          <mxGeometry width="50" height="50" relative="1" as="geometry">
            <mxPoint x="103" y="92" as="sourcePoint" />
            <mxPoint x="80" y="112" as="targetPoint" />
          </mxGeometry>
        </mxCell>
        <mxCell id="c2yMyLL3b_PSxlEiWlKW-26" value="" style="endArrow=none;html=1;rounded=0;fontSize=12;curved=1;startSize=8;endSize=8;entryX=0.5;entryY=1;entryDx=0;entryDy=0;exitX=1;exitY=-0.267;exitDx=0;exitDy=0;exitPerimeter=0;" edge="1" parent="1" source="c2yMyLL3b_PSxlEiWlKW-23" target="c2yMyLL3b_PSxlEiWlKW-17">
          <mxGeometry width="50" height="50" relative="1" as="geometry">
            <mxPoint x="219" y="190" as="sourcePoint" />
            <mxPoint x="334" y="156" as="targetPoint" />
          </mxGeometry>
        </mxCell>
        <mxCell id="c2yMyLL3b_PSxlEiWlKW-27" value="" style="endArrow=none;html=1;rounded=0;fontSize=12;curved=1;startSize=8;endSize=8;exitX=1;exitY=0.5;exitDx=0;exitDy=0;entryX=-0.021;entryY=-0.033;entryDx=0;entryDy=0;entryPerimeter=0;" edge="1" parent="1" source="c2yMyLL3b_PSxlEiWlKW-4" target="c2yMyLL3b_PSxlEiWlKW-19">
          <mxGeometry width="50" height="50" relative="1" as="geometry">
            <mxPoint x="-148" y="145" as="sourcePoint" />
            <mxPoint x="-98" y="95" as="targetPoint" />
          </mxGeometry>
        </mxCell>
        <mxCell id="c2yMyLL3b_PSxlEiWlKW-28" value="" style="endArrow=none;html=1;rounded=0;fontSize=12;curved=1;startSize=8;endSize=8;exitX=0.5;exitY=0;exitDx=0;exitDy=0;entryX=0;entryY=0.067;entryDx=0;entryDy=0;entryPerimeter=0;" edge="1" parent="1" source="c2yMyLL3b_PSxlEiWlKW-4" target="c2yMyLL3b_PSxlEiWlKW-15">
          <mxGeometry width="50" height="50" relative="1" as="geometry">
            <mxPoint x="-69" y="60" as="sourcePoint" />
            <mxPoint x="-19" y="10" as="targetPoint" />
          </mxGeometry>
        </mxCell>
      </root>
    </mxGraphModel>
  </diagram>
  <diagram id="l_L_hYYjgcISpQS7xQAY" name="Page-4">
    <mxGraphModel dx="1389" dy="943" grid="0" gridSize="10" guides="1" tooltips="1" connect="1" arrows="1" fold="1" page="0" pageScale="1" pageWidth="850" pageHeight="1100" math="0" shadow="0">
      <root>
        <mxCell id="0" />
        <mxCell id="1" parent="0" />
        <mxCell id="c0KDXlTuiYbvg-8RYtaC-1" value="" style="ellipse;html=1;shape=endState;fillColor=#000000;strokeColor=#ff0000;fontSize=16;" vertex="1" parent="1">
          <mxGeometry x="694" y="182" width="30" height="30" as="geometry" />
        </mxCell>
        <mxCell id="c0KDXlTuiYbvg-8RYtaC-2" value="" style="ellipse;html=1;shape=startState;fillColor=#000000;strokeColor=#ff0000;fontSize=16;" vertex="1" parent="1">
          <mxGeometry x="-1" y="-33" width="30" height="30" as="geometry" />
        </mxCell>
        <mxCell id="c0KDXlTuiYbvg-8RYtaC-3" value="" style="edgeStyle=orthogonalEdgeStyle;html=1;verticalAlign=bottom;endArrow=open;endSize=8;strokeColor=#ff0000;rounded=0;fontSize=12;curved=1;" edge="1" source="c0KDXlTuiYbvg-8RYtaC-2" parent="1">
          <mxGeometry relative="1" as="geometry">
            <mxPoint x="14" y="57" as="targetPoint" />
          </mxGeometry>
        </mxCell>
        <mxCell id="c0KDXlTuiYbvg-8RYtaC-4" value="Compute bill&amp;nbsp;" style="rounded=1;whiteSpace=wrap;html=1;arcSize=40;fontColor=#000000;fillColor=#ffffc0;strokeColor=#ff0000;fontSize=16;" vertex="1" parent="1">
          <mxGeometry x="-46" y="58" width="120" height="40" as="geometry" />
        </mxCell>
        <mxCell id="c0KDXlTuiYbvg-8RYtaC-5" value="" style="edgeStyle=orthogonalEdgeStyle;html=1;verticalAlign=bottom;endArrow=open;endSize=8;strokeColor=#ff0000;rounded=0;fontSize=12;curved=1;" edge="1" source="c0KDXlTuiYbvg-8RYtaC-4" parent="1">
          <mxGeometry relative="1" as="geometry">
            <mxPoint x="14" y="158" as="targetPoint" />
          </mxGeometry>
        </mxCell>
        <mxCell id="c0KDXlTuiYbvg-8RYtaC-9" value="6 or more per group?" style="rhombus;whiteSpace=wrap;html=1;fontColor=#000000;fillColor=#ffffc0;strokeColor=#ff0000;fontSize=16;" vertex="1" parent="1">
          <mxGeometry x="-53" y="159" width="134" height="76" as="geometry" />
        </mxCell>
        <mxCell id="c0KDXlTuiYbvg-8RYtaC-10" value="no" style="edgeStyle=orthogonalEdgeStyle;html=1;align=left;verticalAlign=bottom;endArrow=open;endSize=8;strokeColor=#ff0000;rounded=0;fontSize=12;curved=1;" edge="1" source="c0KDXlTuiYbvg-8RYtaC-9" parent="1">
          <mxGeometry x="-1" relative="1" as="geometry">
            <mxPoint x="121" y="197" as="targetPoint" />
          </mxGeometry>
        </mxCell>
        <mxCell id="c0KDXlTuiYbvg-8RYtaC-11" value="yes" style="edgeStyle=orthogonalEdgeStyle;html=1;align=left;verticalAlign=top;endArrow=open;endSize=8;strokeColor=#ff0000;rounded=0;fontSize=12;curved=1;" edge="1" source="c0KDXlTuiYbvg-8RYtaC-9" parent="1">
          <mxGeometry x="-1" relative="1" as="geometry">
            <mxPoint x="14" y="280" as="targetPoint" />
          </mxGeometry>
        </mxCell>
        <mxCell id="c0KDXlTuiYbvg-8RYtaC-12" value="Apply 18% service charge" style="rounded=1;whiteSpace=wrap;html=1;arcSize=40;fontColor=#000000;fillColor=#ffffc0;strokeColor=#ff0000;fontSize=16;" vertex="1" parent="1">
          <mxGeometry x="-46" y="277" width="120" height="40" as="geometry" />
        </mxCell>
        <mxCell id="c0KDXlTuiYbvg-8RYtaC-13" value="" style="edgeStyle=orthogonalEdgeStyle;html=1;verticalAlign=bottom;endArrow=open;endSize=8;strokeColor=#ff0000;rounded=0;fontSize=12;curved=1;exitX=1;exitY=0.5;exitDx=0;exitDy=0;entryX=0.25;entryY=1;entryDx=0;entryDy=0;" edge="1" source="c0KDXlTuiYbvg-8RYtaC-12" parent="1" target="c0KDXlTuiYbvg-8RYtaC-14">
          <mxGeometry relative="1" as="geometry">
            <mxPoint x="212" y="223" as="targetPoint" />
          </mxGeometry>
        </mxCell>
        <mxCell id="c0KDXlTuiYbvg-8RYtaC-14" value="Charge for each item delivered" style="rounded=1;whiteSpace=wrap;html=1;arcSize=40;fontColor=#000000;fillColor=#ffffc0;strokeColor=#ff0000;fontSize=16;" vertex="1" parent="1">
          <mxGeometry x="287" y="164" width="129" height="53" as="geometry" />
        </mxCell>
        <mxCell id="c0KDXlTuiYbvg-8RYtaC-16" value="Option for gratuity" style="rounded=1;whiteSpace=wrap;html=1;arcSize=40;fontColor=#000000;fillColor=#ffffc0;strokeColor=#ff0000;fontSize=16;" vertex="1" parent="1">
          <mxGeometry x="122" y="177" width="120" height="40" as="geometry" />
        </mxCell>
        <mxCell id="c0KDXlTuiYbvg-8RYtaC-18" value="" style="edgeStyle=orthogonalEdgeStyle;html=1;align=left;verticalAlign=bottom;endArrow=open;endSize=8;strokeColor=#ff0000;rounded=0;fontSize=12;curved=1;entryX=0;entryY=0.5;entryDx=0;entryDy=0;exitX=1;exitY=0.5;exitDx=0;exitDy=0;" edge="1" parent="1" source="c0KDXlTuiYbvg-8RYtaC-16" target="c0KDXlTuiYbvg-8RYtaC-14">
          <mxGeometry x="-1" relative="1" as="geometry">
            <mxPoint x="175" y="266" as="targetPoint" />
            <mxPoint x="156" y="249" as="sourcePoint" />
          </mxGeometry>
        </mxCell>
        <mxCell id="c0KDXlTuiYbvg-8RYtaC-20" value="Total bill (tax included)" style="rounded=1;whiteSpace=wrap;html=1;arcSize=40;fontColor=#000000;fillColor=#ffffc0;strokeColor=#ff0000;fontSize=16;" vertex="1" parent="1">
          <mxGeometry x="457" y="160.25" width="139" height="60.5" as="geometry" />
        </mxCell>
        <mxCell id="c0KDXlTuiYbvg-8RYtaC-21" value="" style="edgeStyle=orthogonalEdgeStyle;html=1;verticalAlign=bottom;endArrow=open;endSize=8;strokeColor=#ff0000;rounded=0;fontSize=12;curved=1;exitX=0.5;exitY=0;exitDx=0;exitDy=0;" edge="1" source="c0KDXlTuiYbvg-8RYtaC-20" parent="1">
          <mxGeometry relative="1" as="geometry">
            <mxPoint x="526" y="133" as="targetPoint" />
            <mxPoint x="498.5" y="125.54142857142867" as="sourcePoint" />
          </mxGeometry>
        </mxCell>
        <mxCell id="c0KDXlTuiYbvg-8RYtaC-24" value="" style="edgeStyle=orthogonalEdgeStyle;html=1;align=left;verticalAlign=bottom;endArrow=open;endSize=8;strokeColor=#ff0000;rounded=0;fontSize=12;curved=1;" edge="1" parent="1">
          <mxGeometry x="-1" relative="1" as="geometry">
            <mxPoint x="456" y="190" as="targetPoint" />
            <mxPoint x="416" y="190" as="sourcePoint" />
          </mxGeometry>
        </mxCell>
        <mxCell id="c0KDXlTuiYbvg-8RYtaC-30" value="Coupon or gift certificate?" style="rhombus;whiteSpace=wrap;html=1;fontColor=#000000;fillColor=#ffffc0;strokeColor=#ff0000;fontSize=16;shadow=0;direction=east;" vertex="1" parent="1">
          <mxGeometry x="448.5" y="31" width="156" height="101" as="geometry" />
        </mxCell>
        <mxCell id="c0KDXlTuiYbvg-8RYtaC-31" value="No" style="edgeStyle=orthogonalEdgeStyle;html=1;align=left;verticalAlign=bottom;endArrow=open;endSize=8;strokeColor=#ff0000;rounded=0;fontSize=12;curved=1;shadow=0;entryX=0.017;entryY=0.391;entryDx=0;entryDy=0;entryPerimeter=0;" edge="1" source="c0KDXlTuiYbvg-8RYtaC-30" parent="1" target="c0KDXlTuiYbvg-8RYtaC-38">
          <mxGeometry x="-1" relative="1" as="geometry">
            <mxPoint x="650" y="84" as="targetPoint" />
          </mxGeometry>
        </mxCell>
        <mxCell id="c0KDXlTuiYbvg-8RYtaC-34" value="" style="edgeStyle=orthogonalEdgeStyle;html=1;align=left;verticalAlign=bottom;endArrow=open;endSize=8;strokeColor=#ff0000;rounded=0;fontSize=12;curved=1;exitX=0.5;exitY=0;exitDx=0;exitDy=0;entryX=0;entryY=0.5;entryDx=0;entryDy=0;" edge="1" parent="1" source="c0KDXlTuiYbvg-8RYtaC-30" target="c0KDXlTuiYbvg-8RYtaC-36">
          <mxGeometry x="-1" relative="1" as="geometry">
            <mxPoint x="612" y="4" as="targetPoint" />
            <mxPoint x="531" y="-9" as="sourcePoint" />
            <Array as="points">
              <mxPoint x="527" y="10" />
              <mxPoint x="571" y="10" />
              <mxPoint x="571" y="8" />
            </Array>
          </mxGeometry>
        </mxCell>
        <mxCell id="c0KDXlTuiYbvg-8RYtaC-35" value="&lt;font style=&quot;font-size: 12px;&quot;&gt;Yes&lt;/font&gt;" style="edgeLabel;html=1;align=center;verticalAlign=middle;resizable=0;points=[];fontSize=16;" vertex="1" connectable="0" parent="c0KDXlTuiYbvg-8RYtaC-34">
          <mxGeometry x="0.0138" y="6" relative="1" as="geometry">
            <mxPoint x="11" y="-5" as="offset" />
          </mxGeometry>
        </mxCell>
        <mxCell id="c0KDXlTuiYbvg-8RYtaC-36" value="Apply Discount" style="rounded=1;whiteSpace=wrap;html=1;arcSize=40;fontColor=#000000;fillColor=#ffffc0;strokeColor=#ff0000;fontSize=16;" vertex="1" parent="1">
          <mxGeometry x="649" y="-12" width="120" height="40" as="geometry" />
        </mxCell>
        <mxCell id="c0KDXlTuiYbvg-8RYtaC-37" value="" style="edgeStyle=orthogonalEdgeStyle;html=1;verticalAlign=bottom;endArrow=open;endSize=8;strokeColor=#ff0000;rounded=0;fontSize=12;curved=1;entryX=0.5;entryY=0;entryDx=0;entryDy=0;" edge="1" source="c0KDXlTuiYbvg-8RYtaC-36" parent="1" target="c0KDXlTuiYbvg-8RYtaC-38">
          <mxGeometry relative="1" as="geometry">
            <mxPoint x="670" y="59" as="targetPoint" />
          </mxGeometry>
        </mxCell>
        <mxCell id="c0KDXlTuiYbvg-8RYtaC-38" value="Total Charge&amp;nbsp;" style="rounded=1;whiteSpace=wrap;html=1;arcSize=40;fontColor=#000000;fillColor=#ffffc0;strokeColor=#ff0000;fontSize=16;" vertex="1" parent="1">
          <mxGeometry x="649" y="60" width="120" height="40" as="geometry" />
        </mxCell>
        <mxCell id="c0KDXlTuiYbvg-8RYtaC-39" value="" style="edgeStyle=orthogonalEdgeStyle;html=1;verticalAlign=bottom;endArrow=open;endSize=8;strokeColor=#ff0000;rounded=0;fontSize=12;curved=1;entryX=0.5;entryY=0;entryDx=0;entryDy=0;" edge="1" source="c0KDXlTuiYbvg-8RYtaC-38" parent="1" target="c0KDXlTuiYbvg-8RYtaC-1">
          <mxGeometry relative="1" as="geometry">
            <mxPoint x="709" y="140" as="targetPoint" />
          </mxGeometry>
        </mxCell>
      </root>
    </mxGraphModel>
  </diagram>
</mxfile>
